<?xml version="1.0" encoding="utf-8"?>
<!-- Uploaded to: SVG Repo, www.svgrepo.com, Generator: SVG Repo Mixer Tools -->
<svg width="800px" height="800px" viewBox="0 0 1024 1024" class="icon"  version="1.1" xmlns="http://www.w3.org/2000/svg"><path d="M557.056 103.424l-2.048 271.872c-12.8-4.096-24.064-15.872-33.28-26.624v-1.536c1.024-9.216 2.56-17.92 3.584-27.136 0.512-4.608-4.096-8.192-8.192-8.192-5.12 0-7.68 3.584-8.192 8.192-0.512 4.608-1.024 9.216-1.536 13.312-12.288-12.288-24.576-25.088-37.376-37.888-7.168-7.68-18.944 4.096-11.776 11.776 18.432 18.432 36.352 37.376 54.784 55.808h-12.288c-10.752 0-10.752 16.384 0 16.384h23.04c2.048 0 3.584-0.512 4.608-1.536 7.68 6.656 15.872 12.288 26.112 13.824V527.36c-20.992-0.512-37.888-7.68-55.296-17.92-14.848-8.704-31.232-14.848-46.08-23.552-14.336-8.704-26.624-20.992-37.376-34.816 2.56-5.12 5.12-10.752 7.68-15.872 2.048-4.096 1.024-8.704-3.072-11.264-3.584-2.048-9.216-1.024-11.264 3.072l-4.608 9.216c-7.168-10.752-13.824-22.016-19.968-32.768-5.12-9.216-19.456-1.024-14.336 8.192 17.92 31.232 39.936 67.072 71.168 87.04-5.12 4.096-10.752 7.68-16.896 9.728-4.096 1.536-7.168 5.632-5.632 10.24 1.024 4.096 6.144 7.168 10.24 5.632 10.24-4.096 19.456-9.728 27.648-16.896 13.824 7.168 27.648 13.824 41.472 20.992 17.92 9.728 35.84 15.36 56.32 15.872l-1.024 145.92c-21.504-1.024-43.008 0-64.512-2.048l-12.288-1.536c1.024-11.776 1.536-24.064 2.56-35.84 0.512-10.24-15.872-10.24-16.384 0-0.512 10.752-1.536 21.504-2.048 32.256-13.824-4.096-26.624-10.24-38.912-17.92-39.424-24.064-69.12-60.416-100.352-93.696-7.168-7.68-18.944 4.096-11.776 11.776 23.552 25.088 46.592 51.712 72.704 73.728-7.68 2.048-15.36 3.584-22.528 5.632-10.24 2.56-6.144 18.432 4.608 15.872s20.992-5.12 31.744-7.68c1.024 0 2.048-0.512 2.56-1.024 6.144 4.608 12.8 9.216 19.968 12.8 19.456 11.264 40.96 18.944 63.488 22.016 23.552 3.072 47.616 1.536 71.68 2.56l-0.512 83.968c-103.936 7.168-182.272-9.216-232.448-47.616-40.448-31.232-63.488-76.288-70.144-137.728-11.776-110.592 105.472-246.784 156.16-300.032 50.176-55.296 118.272-153.6 150.016-202.24zM636.928 210.944c2.56 2.048 258.56 188.928 235.008 398.336-9.728 85.504-62.976 141.824-158.72 167.424-62.976 16.896-124.928 13.824-140.8 12.8l0.512-111.616c18.944-9.216 42.496-11.264 62.464-16.896 19.968-5.632 38.912-12.288 57.856-20.992 5.632-2.56 11.264-5.632 16.896-8.192 7.68 4.608 16.384 5.12 25.088 6.144 12.8 1.536 25.088 3.072 37.888 4.096 10.752 0.512 10.24-15.36 0-16.384-10.24-0.512-19.968-1.536-30.208-2.56-4.608-0.512-9.728-1.024-14.848-2.048 20.992-13.312 39.936-29.696 55.808-49.664 6.656-8.192-5.12-19.968-11.776-11.776-24.576 30.72-56.832 53.248-93.184 68.608-11.776 5.12-24.576 9.728-36.864 13.312v-24.576c0-10.24-16.384-10.752-16.384 0V646.144c-2.048 0.512-4.608 1.536-6.656 2.048-15.36 4.096-31.744 6.144-46.592 11.776L573.44 473.6c34.816-2.048 69.632-9.216 100.864-23.552 0 0.512 0.512 0.512 0.512 1.024 9.728 8.704 20.992 14.848 33.28 18.432 10.24 3.072 14.336-12.8 4.608-15.872-8.192-2.56-15.872-6.144-22.528-11.264 17.408-9.728 33.792-22.528 47.616-37.888 7.168-7.68-4.608-19.456-11.776-11.776-23.04 25.6-52.224 42.496-84.48 52.736 2.048-4.608 4.096-9.216 6.656-13.824 5.12-9.216-9.216-17.408-14.336-8.192-4.608 8.704-8.704 17.92-12.288 27.136-15.36 3.584-31.232 5.632-47.616 6.656l1.024-110.592c32.256-12.288 72.192-23.04 93.696-50.688 6.656-8.192-7.68-16.384-14.336-8.192-8.192 10.752-19.968 16.896-32.256 22.016 0.512-4.608 1.536-8.704 3.072-13.312 3.072-10.24-12.288-14.336-15.872-4.096-2.56 7.168-3.584 14.848-4.096 23.04v1.536c-10.24 4.096-19.968 8.192-30.208 12.288l1.536-195.584c22.528 40.96 56.832 74.24 58.88 76.288l1.536 1.024z" fill="#C3EAA9" /><path d="M778.752 318.976c83.968 99.84 122.88 201.216 112.64 292.864-10.752 93.184-70.656 157.184-173.568 184.32-65.024 16.896-126.464 14.336-145.408 13.312l-1.024 178.176h-19.456l1.024-177.152c-15.872 1.024-31.232 1.536-45.568 1.536-168.96 0-262.144-68.608-276.48-204.8-12.8-118.784 108.544-260.096 161.28-315.392 66.56-71.168 165.888-225.28 166.912-226.816l17.92-28.16v33.28c0 53.248 65.536 119.296 71.68 124.928 7.168 5.632 69.632 51.712 130.048 123.904zM871.936 609.28c23.552-209.408-232.448-396.8-235.008-398.336l-1.024-1.024c-2.048-2.048-36.864-35.328-58.88-76.288l-1.536 195.584c10.24-4.096 20.48-8.192 30.208-12.288v-1.536c0.512-7.68 1.536-15.36 4.096-23.04 3.072-10.24 18.944-5.632 15.872 4.096-1.536 4.096-2.56 8.704-3.072 13.312 12.288-5.12 24.064-11.264 32.256-22.016 6.144-8.192 20.48 0 14.336 8.192-20.992 27.648-61.44 38.4-93.696 50.688l-1.024 110.592c15.872-1.024 32.256-3.072 47.616-6.656 3.072-9.216 7.168-18.432 12.288-27.136 5.12-9.216 19.456-1.024 14.336 8.192-2.56 4.608-4.608 9.216-6.656 13.824 32.256-10.24 61.44-27.136 85.504-53.248 7.168-7.68 18.432 4.096 11.776 11.776-14.336 15.36-30.208 28.16-47.616 37.888 6.656 5.12 14.336 9.216 22.528 11.264 10.24 3.072 5.632 18.432-4.608 15.872-13.312-3.584-24.064-9.728-33.792-18.432-0.512 0-0.512-0.512-0.512-1.024-31.232 14.336-65.536 21.504-100.864 23.552l-1.024 186.368c14.848-5.632 31.232-7.68 46.592-11.776 2.048-0.512 4.608-1.024 6.656-2.048V645.12v-28.672c0-10.752 16.384-10.24 16.384 0v24.576c12.288-4.096 25.088-8.192 36.864-13.312 35.84-15.36 68.608-37.888 93.184-68.608 6.656-8.192 17.92 3.584 11.776 11.776-15.872 19.456-34.816 36.352-55.808 49.664 5.12 1.024 10.24 1.536 14.848 2.048 10.24 1.024 19.968 2.048 30.208 2.56 10.24 0.512 10.752 16.896 0 16.384-12.8-1.024-25.6-2.048-37.888-4.096-8.704-1.024-17.408-2.048-25.088-6.144-5.632 3.072-10.752 5.632-16.896 8.192-18.944 8.704-37.888 15.36-57.856 20.992-19.968 5.632-43.52 7.68-62.464 16.896l-0.512 111.616c15.872 1.024 77.824 4.096 140.8-12.8 94.72-24.576 147.968-80.896 157.696-166.912z m-316.416-233.472l2.048-271.872c-32.256 48.128-99.84 146.944-151.552 201.216-50.688 53.248-167.936 189.44-156.16 300.032 6.656 61.44 29.696 106.496 70.144 137.728 50.688 38.912 129.024 54.784 232.448 47.616L552.96 706.56c-24.064-1.024-48.128 0.512-71.68-2.56-22.528-3.072-44.032-10.752-63.488-22.016-6.656-4.096-13.312-8.192-19.968-12.8-1.024 0.512-1.536 1.024-2.56 1.024-10.752 2.56-20.992 5.12-31.744 7.68-10.24 2.56-14.848-13.312-4.608-15.872 7.68-2.048 15.36-3.584 22.528-5.632-26.624-22.016-49.152-48.64-72.704-73.728-7.168-7.68 4.096-19.456 11.776-11.776 31.232 33.28 60.928 69.632 100.352 93.696 12.288 7.68 25.6 13.312 38.912 17.92 1.024-10.752 1.536-21.504 2.048-32.256 0.512-10.24 16.896-10.24 16.384 0-1.024 11.776-1.536 24.064-2.56 35.84 4.096 0.512 8.192 1.536 12.288 1.536 21.504 2.048 43.008 1.024 64.512 2.048l1.024-145.92c-20.48-0.512-38.4-6.144-56.32-15.872-13.312-7.68-27.648-13.824-41.472-20.992-8.192 7.68-16.896 13.312-27.648 16.896-4.096 1.536-9.216-1.536-10.24-5.632-1.536-4.608 1.536-8.704 5.632-10.24 6.144-2.56 11.776-5.632 16.896-9.728-31.232-19.968-53.248-55.808-71.168-87.04-5.12-9.216 8.704-17.408 14.336-8.192 6.144 10.752 12.8 22.016 19.968 32.768l4.608-9.216c2.048-4.096 7.68-5.12 11.264-3.072 4.096 2.048 4.608 7.168 3.072 11.264-2.56 5.12-5.12 10.752-7.68 15.872 10.752 13.824 23.04 26.624 37.376 34.816 14.848 8.704 31.232 14.848 46.08 23.552 17.92 10.24 34.816 17.408 55.296 17.92l1.024-134.656c-10.24-2.048-18.432-7.168-26.112-13.824-1.024 1.024-3.072 1.536-4.608 1.536h-23.04c-10.752 0-10.752-16.384 0-16.384h12.288c-18.432-18.432-36.352-37.376-54.784-55.808-7.168-7.68 4.096-18.944 11.776-11.776 12.288 12.8 24.576 25.088 37.376 37.888 0.512-4.608 1.024-9.216 1.536-13.312 0.512-4.608 3.072-8.192 8.192-8.192 4.096 0 8.704 3.584 8.192 8.192-1.024 9.216-2.56 17.92-3.584 27.136v1.536c9.728 10.24 20.48 22.528 33.792 26.624z" fill="#5AB75A" /></svg>