<?xml version="1.0" encoding="iso-8859-1"?>
<!-- Uploaded to: SVG Repo, www.svgrepo.com, Generator: SVG Repo Mixer Tools -->
<svg height="800px" width="800px" version="1.1" id="Layer_1" xmlns="http://www.w3.org/2000/svg" xmlns:xlink="http://www.w3.org/1999/xlink" 
	 viewBox="0 0 511.985 511.985" xml:space="preserve">
<path style="fill:#A0D468;" d="M487.89,345.085L264.014,88.919c-2.031-2.312-4.953-3.64-8.032-3.64c-3.062,0-6,1.328-8.031,3.64
	L24.083,345.085c-2.75,3.141-3.406,7.609-1.688,11.422c1.734,3.797,5.531,6.25,9.718,6.25h53.311v138.574
	c0,5.889,4.781,10.654,10.671,10.654h319.797c5.875,0,10.656-4.766,10.656-10.654V362.757h53.326c4.172,0,7.984-2.453,9.703-6.25
	C491.312,352.694,490.656,348.225,487.89,345.085z"/>
<path style="fill:#8CC153;" d="M394.58,266.493c-3.031,0-5.968-1.297-8.046-3.656l-42.639-48.858c-1.688-1.937-2.625-4.421-2.625-7
	v-47.092c0-5.875,4.781-10.656,10.656-10.656h42.638c5.891,0,10.672,4.781,10.672,10.656v95.935c0,4.453-2.766,8.422-6.922,9.984
	C397.08,266.259,395.83,266.493,394.58,266.493z"/>
<path style="fill:#E6E9ED;" d="M255.983,287.805c-5.875,0-10.656,4.766-10.656,10.656V447.69c0,5.891,4.781,10.672,10.656,10.672
	c5.891,0,10.657-4.781,10.657-10.672V298.462C266.639,292.571,261.874,287.805,255.983,287.805z"/>
<path style="fill:#F5F7FA;" d="M261.639,364.038c-26.594-16.625-35.375-28.047-37.156-32.344c1.469-0.531,4.5-1.25,10.188-1.25
	h63.96c5.89,0,10.671-4.766,10.671-10.656s-4.781-10.656-10.671-10.656h-63.96c-21.937,0-29.031,8.703-31.14,16
	c-4.469,15.609,11.266,34.781,46.812,56.984c26.602,16.623,35.367,28.045,37.148,32.357c-1.469,0.531-4.5,1.25-10.171,1.25h-63.96
	c-5.906,0-10.672,4.766-10.672,10.654c0,5.891,4.766,10.656,10.672,10.656h63.96c21.921,0,29.029-8.703,31.139-15.998
	C312.927,405.427,297.178,386.255,261.639,364.038z"/>
<path style="fill:#656D78;" d="M487.89,345.085L264.014,88.919c-2.031-2.312-4.953-3.64-8.032-3.64c-3.062,0-6,1.328-8.031,3.64
	L24.083,345.085c-2.75,3.156-3.406,7.625-1.672,11.438s5.578,6.234,9.75,6.234l53.327-0.328c3.031-0.016,5.922-1.328,7.937-3.609
	l162.559-182.496L418.55,359.148c2.031,2.297,4.938,3.609,8,3.609h53.326c4.172,0,7.984-2.453,9.703-6.25
	C491.312,352.694,490.656,348.225,487.89,345.085z"/>
<g>
	<path style="fill:#E6E9ED;" d="M405.236,0H128.08c-14.703,0-26.656,11.953-26.656,26.64c0,14.703,11.953,26.656,26.656,26.656
		h277.156c14.688,0,26.641-11.953,26.641-26.656C431.877,11.953,419.924,0,405.236,0z"/>
	<path style="fill:#E6E9ED;" d="M343.098,95.935c-1.172,3.328-1.828,6.921-1.828,10.656c0,17.672,14.312,31.984,31.983,31.984
		c17.655,0,31.982-14.312,31.982-31.984c0-3.734-0.656-7.328-1.844-10.656H343.098z"/>
</g>
<path style="fill:#CCD1D9;" d="M426.549,53.296h-95.935c-14.688,0-26.656,11.953-26.656,26.655c0,14.687,11.969,26.64,26.656,26.64
	h95.935c14.688,0,26.655-11.953,26.655-26.64C453.204,65.248,441.236,53.296,426.549,53.296z"/>
</svg>